<?xml version="1.0" encoding="UTF-8"?>
<mxfile host="app.diagrams.net" agent="Mozilla/5.0 (Windows NT 10.0; Win64; x64) AppleWebKit/537.36 (KHTML, like Gecko) Chrome/131.0.0.0 Safari/537.36" version="24.8.6">
  <diagram name="Страница — 1" id="6LBImwr1Vb92L8S9MCvD">
    <mxGraphModel dx="3617" dy="2456" grid="1" gridSize="10" guides="1" tooltips="1" connect="1" arrows="1" fold="1" page="1" pageScale="1" pageWidth="827" pageHeight="1169" math="0" shadow="0">
      <root>
        <mxCell id="0" />
        <mxCell id="1" parent="0" />
        <mxCell id="2" value="" style="rounded=0;whiteSpace=wrap;html=1;" vertex="1" parent="1">
          <mxGeometry x="-790" y="-340" width="180" height="310" as="geometry" />
        </mxCell>
        <mxCell id="3" value="&lt;h1 style=&quot;margin-top: 0px;&quot;&gt;Экран клиента&lt;/h1&gt;&lt;div&gt;Этап &quot;Регистрация/авторизация&quot;&lt;/div&gt;&lt;div&gt;\authorization&lt;/div&gt;&lt;p&gt;&lt;br&gt;&lt;/p&gt;" style="text;html=1;whiteSpace=wrap;overflow=hidden;rounded=0;" vertex="1" parent="1">
          <mxGeometry x="-790" y="-470" width="180" height="120" as="geometry" />
        </mxCell>
        <mxCell id="4" value="Поле для ввода номера телефона" style="rounded=0;whiteSpace=wrap;html=1;" vertex="1" parent="1">
          <mxGeometry x="-780" y="-320" width="160" height="60" as="geometry" />
        </mxCell>
        <mxCell id="5" value="Кнопка согласия на передачу персональных данных/поле уведомления о передаче персональных данных" style="rounded=0;whiteSpace=wrap;html=1;" vertex="1" parent="1">
          <mxGeometry x="-780" y="-250" width="160" height="80" as="geometry" />
        </mxCell>
        <mxCell id="6" value="Кнопка &quot;Получить код&quot;" style="rounded=0;whiteSpace=wrap;html=1;" vertex="1" parent="1">
          <mxGeometry x="-780" y="-150" width="160" height="60" as="geometry" />
        </mxCell>
        <mxCell id="7" value="" style="rounded=0;whiteSpace=wrap;html=1;" vertex="1" parent="1">
          <mxGeometry x="-190" y="-340" width="180" height="310" as="geometry" />
        </mxCell>
        <mxCell id="8" value="&lt;h1 style=&quot;margin-top: 0px;&quot;&gt;Экран клиента&lt;/h1&gt;&lt;div&gt;Этап &quot;Выбор услуг и &quot;Выбор временного интервала&quot;&lt;/div&gt;&lt;p&gt;&lt;br&gt;&lt;/p&gt;" style="text;html=1;whiteSpace=wrap;overflow=hidden;rounded=0;" vertex="1" parent="1">
          <mxGeometry x="-190" y="-460" width="180" height="120" as="geometry" />
        </mxCell>
        <mxCell id="9" value="Список для выбора (чекбоксы) услуг" style="rounded=0;whiteSpace=wrap;html=1;" vertex="1" parent="1">
          <mxGeometry x="-170" y="-320" width="140" height="120" as="geometry" />
        </mxCell>
        <mxCell id="10" value="" style="rounded=0;whiteSpace=wrap;html=1;" vertex="1" parent="1">
          <mxGeometry x="-593" y="-340" width="180" height="310" as="geometry" />
        </mxCell>
        <mxCell id="11" value="Поле для ввода кода" style="rounded=0;whiteSpace=wrap;html=1;" vertex="1" parent="1">
          <mxGeometry x="-570" y="-320" width="130" height="60" as="geometry" />
        </mxCell>
        <mxCell id="12" value="Поле для повторного запроса кода" style="rounded=0;whiteSpace=wrap;html=1;" vertex="1" parent="1">
          <mxGeometry x="-570" y="-250" width="130" height="60" as="geometry" />
        </mxCell>
        <mxCell id="13" value="Кнопка &quot;Подтвердить&quot;" style="rounded=0;whiteSpace=wrap;html=1;" vertex="1" parent="1">
          <mxGeometry x="-570" y="-150" width="130" height="60" as="geometry" />
        </mxCell>
        <mxCell id="14" value="" style="rounded=0;whiteSpace=wrap;html=1;" vertex="1" parent="1">
          <mxGeometry x="-390" y="-340" width="180" height="310" as="geometry" />
        </mxCell>
        <mxCell id="15" value="Поля с данными о клиенте (при регистрации - для ввода, при авторизации - автозаполнение)" style="rounded=0;whiteSpace=wrap;html=1;" vertex="1" parent="1">
          <mxGeometry x="-370" y="-320" width="140" height="130" as="geometry" />
        </mxCell>
        <mxCell id="16" value="Кнопка &quot;Далее&quot;" style="rounded=0;whiteSpace=wrap;html=1;" vertex="1" parent="1">
          <mxGeometry x="-370" y="-170" width="140" height="60" as="geometry" />
        </mxCell>
        <mxCell id="17" value="1. Календарь для выбора даты&amp;nbsp;&lt;div&gt;2. Часы для выбора временного интервала&lt;/div&gt;" style="rounded=0;whiteSpace=wrap;html=1;" vertex="1" parent="1">
          <mxGeometry x="-170" y="-190" width="140" height="90" as="geometry" />
        </mxCell>
        <mxCell id="18" value="Кнопка &quot;Далее&quot;" style="rounded=0;whiteSpace=wrap;html=1;" vertex="1" parent="1">
          <mxGeometry x="-90" y="-90" width="60" height="40" as="geometry" />
        </mxCell>
        <mxCell id="19" value="" style="rounded=0;whiteSpace=wrap;html=1;" vertex="1" parent="1">
          <mxGeometry x="10" y="-340" width="180" height="310" as="geometry" />
        </mxCell>
        <mxCell id="20" value="&lt;h1 style=&quot;margin-top: 0px;&quot;&gt;Экран клиента&lt;/h1&gt;&lt;div&gt;Этап &quot;Просмотреть список мастеров&quot;&lt;/div&gt;&lt;p&gt;&lt;br&gt;&lt;/p&gt;" style="text;html=1;whiteSpace=wrap;overflow=hidden;rounded=0;" vertex="1" parent="1">
          <mxGeometry x="10" y="-460" width="180" height="120" as="geometry" />
        </mxCell>
        <mxCell id="21" value="Список мастеров&lt;div&gt;1. Имя мастера&lt;/div&gt;&lt;div&gt;2. Фото мастера&lt;/div&gt;&lt;div&gt;3. Стаж мастера&lt;/div&gt;&lt;div&gt;4. Кнопка для перехода к мастеру&lt;/div&gt;" style="rounded=0;whiteSpace=wrap;html=1;" vertex="1" parent="1">
          <mxGeometry x="20" y="-320" width="160" height="190" as="geometry" />
        </mxCell>
        <mxCell id="22" value="Кнопка &quot;Назад&quot;" style="rounded=0;whiteSpace=wrap;html=1;" vertex="1" parent="1">
          <mxGeometry x="-170" y="-90" width="60" height="40" as="geometry" />
        </mxCell>
        <mxCell id="23" value="Кнопка &quot;Назад&quot;" style="rounded=0;whiteSpace=wrap;html=1;" vertex="1" parent="1">
          <mxGeometry x="20" y="-90" width="160" height="40" as="geometry" />
        </mxCell>
        <mxCell id="24" value="" style="rounded=0;whiteSpace=wrap;html=1;" vertex="1" parent="1">
          <mxGeometry x="210" y="-340" width="180" height="310" as="geometry" />
        </mxCell>
        <mxCell id="25" value="&lt;h1 style=&quot;margin-top: 0px;&quot;&gt;Экран клиента&lt;/h1&gt;&lt;div&gt;Этап &quot;Просмотр конкретного мастера&quot;&lt;/div&gt;&lt;p&gt;&lt;br&gt;&lt;/p&gt;" style="text;html=1;whiteSpace=wrap;overflow=hidden;rounded=0;" vertex="1" parent="1">
          <mxGeometry x="210" y="-460" width="180" height="120" as="geometry" />
        </mxCell>
        <mxCell id="26" value="Данные о мастере:&lt;div&gt;1. Имя мастера&lt;/div&gt;&lt;div&gt;2. Фото мастера&lt;/div&gt;&lt;div&gt;3. Стаж мастера&lt;/div&gt;&lt;div&gt;4. Навыки&amp;nbsp;&lt;/div&gt;&lt;div&gt;5. Портфолио работ&lt;/div&gt;" style="rounded=0;whiteSpace=wrap;html=1;" vertex="1" parent="1">
          <mxGeometry x="230" y="-320" width="140" height="140" as="geometry" />
        </mxCell>
        <mxCell id="27" value="Кнопка &quot;Назад&quot;" style="rounded=0;whiteSpace=wrap;html=1;" vertex="1" parent="1">
          <mxGeometry x="230" y="-90" width="60" height="40" as="geometry" />
        </mxCell>
        <mxCell id="28" value="Кнопка &quot;Далее&quot;" style="rounded=0;whiteSpace=wrap;html=1;" vertex="1" parent="1">
          <mxGeometry x="300" y="-90" width="70" height="40" as="geometry" />
        </mxCell>
        <mxCell id="29" value="Окна для выбора на заданную дату и временной интервал" style="rounded=0;whiteSpace=wrap;html=1;" vertex="1" parent="1">
          <mxGeometry x="230" y="-170" width="140" height="70" as="geometry" />
        </mxCell>
        <mxCell id="30" value="" style="rounded=0;whiteSpace=wrap;html=1;" vertex="1" parent="1">
          <mxGeometry x="410" y="-340" width="180" height="310" as="geometry" />
        </mxCell>
        <mxCell id="31" value="&lt;h1 style=&quot;margin-top: 0px;&quot;&gt;Экран клиента&lt;/h1&gt;&lt;div&gt;Этап &quot;Подтверждение отправки заявки&quot;&lt;/div&gt;&lt;p&gt;&lt;br&gt;&lt;/p&gt;" style="text;html=1;whiteSpace=wrap;overflow=hidden;rounded=0;" vertex="1" parent="1">
          <mxGeometry x="410" y="-460" width="180" height="120" as="geometry" />
        </mxCell>
        <mxCell id="32" value="Заполненные данные о клиенте: 1. ФИО&lt;div&gt;2. Номер телефона&lt;/div&gt;" style="rounded=0;whiteSpace=wrap;html=1;" vertex="1" parent="1">
          <mxGeometry x="420" y="-320" width="160" height="50" as="geometry" />
        </mxCell>
        <mxCell id="33" value="Кнопка &quot;Назад&quot;" style="rounded=0;whiteSpace=wrap;html=1;" vertex="1" parent="1">
          <mxGeometry x="420" y="-90" width="60" height="40" as="geometry" />
        </mxCell>
        <mxCell id="34" value="Кнопка &quot;Подтвердить&quot;" style="rounded=0;whiteSpace=wrap;html=1;" vertex="1" parent="1">
          <mxGeometry x="490" y="-90" width="90" height="40" as="geometry" />
        </mxCell>
        <mxCell id="35" value="" style="edgeStyle=orthogonalEdgeStyle;rounded=0;orthogonalLoop=1;jettySize=auto;html=1;" edge="1" source="36" target="32" parent="1">
          <mxGeometry relative="1" as="geometry" />
        </mxCell>
        <mxCell id="36" value="Заполненные данные о выбранных процедурах:&lt;div&gt;1. Список процедур&lt;/div&gt;&lt;div&gt;2. Расчет ориентировочной стоимости&lt;/div&gt;" style="rounded=0;whiteSpace=wrap;html=1;" vertex="1" parent="1">
          <mxGeometry x="420" y="-260" width="160" height="90" as="geometry" />
        </mxCell>
        <mxCell id="37" value="Заполненные данные о выбранном мастере, дате и времени записи" style="rounded=0;whiteSpace=wrap;html=1;" vertex="1" parent="1">
          <mxGeometry x="420" y="-160" width="160" height="60" as="geometry" />
        </mxCell>
        <mxCell id="38" value="" style="rounded=0;whiteSpace=wrap;html=1;" vertex="1" parent="1">
          <mxGeometry x="610" y="-340" width="180" height="310" as="geometry" />
        </mxCell>
        <mxCell id="39" value="&lt;h1 style=&quot;margin-top: 0px;&quot;&gt;Экран клиента&lt;/h1&gt;&lt;div&gt;Ответ системы&lt;/div&gt;&lt;p&gt;&lt;br&gt;&lt;/p&gt;" style="text;html=1;whiteSpace=wrap;overflow=hidden;rounded=0;" vertex="1" parent="1">
          <mxGeometry x="610" y="-460" width="180" height="120" as="geometry" />
        </mxCell>
        <mxCell id="40" value="Состояние заявки: &quot;Заявка успешно отправлена&quot;/&quot;Возникла техническая ошибка&quot;" style="rounded=0;whiteSpace=wrap;html=1;" vertex="1" parent="1">
          <mxGeometry x="630" y="-315" width="140" height="210" as="geometry" />
        </mxCell>
        <mxCell id="41" value="Кнопка &quot;Выход&quot;" style="rounded=0;whiteSpace=wrap;html=1;" vertex="1" parent="1">
          <mxGeometry x="630" y="-90" width="140" height="40" as="geometry" />
        </mxCell>
        <mxCell id="42" value="Пагинация" style="text;html=1;align=center;verticalAlign=middle;whiteSpace=wrap;rounded=0;" vertex="1" parent="1">
          <mxGeometry x="70" y="-130" width="60" height="30" as="geometry" />
        </mxCell>
        <mxCell id="43" value="" style="endArrow=classic;html=1;rounded=0;entryX=-0.005;entryY=0.345;entryDx=0;entryDy=0;exitX=1;exitY=0;exitDx=0;exitDy=0;entryPerimeter=0;" edge="1" source="6" target="10" parent="1">
          <mxGeometry width="50" height="50" relative="1" as="geometry">
            <mxPoint x="-620" y="-140" as="sourcePoint" />
            <mxPoint x="-570" y="-190" as="targetPoint" />
          </mxGeometry>
        </mxCell>
        <mxCell id="44" value="" style="endArrow=classic;html=1;rounded=0;entryX=-0.001;entryY=0.44;entryDx=0;entryDy=0;entryPerimeter=0;" edge="1" source="13" target="14" parent="1">
          <mxGeometry width="50" height="50" relative="1" as="geometry">
            <mxPoint x="-310" y="-130" as="sourcePoint" />
            <mxPoint x="-260" y="-180" as="targetPoint" />
          </mxGeometry>
        </mxCell>
        <mxCell id="45" value="" style="endArrow=classic;html=1;rounded=0;exitX=1;exitY=0.25;exitDx=0;exitDy=0;entryX=0;entryY=0.484;entryDx=0;entryDy=0;entryPerimeter=0;" edge="1" source="16" target="7" parent="1">
          <mxGeometry width="50" height="50" relative="1" as="geometry">
            <mxPoint x="-160" y="-140" as="sourcePoint" />
            <mxPoint x="-110" y="-190" as="targetPoint" />
          </mxGeometry>
        </mxCell>
        <mxCell id="46" value="" style="endArrow=classic;html=1;rounded=0;entryX=0.995;entryY=0.852;entryDx=0;entryDy=0;entryPerimeter=0;exitX=0;exitY=0.5;exitDx=0;exitDy=0;" edge="1" source="22" target="14" parent="1">
          <mxGeometry width="50" height="50" relative="1" as="geometry">
            <mxPoint x="-100" y="-160" as="sourcePoint" />
            <mxPoint x="-50" y="-210" as="targetPoint" />
          </mxGeometry>
        </mxCell>
        <mxCell id="47" value="" style="endArrow=classic;html=1;rounded=0;exitX=1;exitY=0.25;exitDx=0;exitDy=0;entryX=0;entryY=0.703;entryDx=0;entryDy=0;entryPerimeter=0;" edge="1" source="18" target="19" parent="1">
          <mxGeometry width="50" height="50" relative="1" as="geometry">
            <mxPoint x="20" y="-160" as="sourcePoint" />
            <mxPoint x="70" y="-210" as="targetPoint" />
          </mxGeometry>
        </mxCell>
        <mxCell id="48" value="" style="endArrow=classic;html=1;rounded=0;entryX=0.998;entryY=0.932;entryDx=0;entryDy=0;entryPerimeter=0;exitX=0;exitY=0.75;exitDx=0;exitDy=0;" edge="1" source="23" target="7" parent="1">
          <mxGeometry width="50" height="50" relative="1" as="geometry">
            <mxPoint x="30" y="-60" as="sourcePoint" />
            <mxPoint x="80" y="-110" as="targetPoint" />
          </mxGeometry>
        </mxCell>
        <mxCell id="49" value="" style="endArrow=classic;html=1;rounded=0;entryX=0.006;entryY=0.105;entryDx=0;entryDy=0;entryPerimeter=0;exitX=1.002;exitY=0.1;exitDx=0;exitDy=0;exitPerimeter=0;" edge="1" source="21" target="24" parent="1">
          <mxGeometry width="50" height="50" relative="1" as="geometry">
            <mxPoint x="130" y="-180" as="sourcePoint" />
            <mxPoint x="180" y="-230" as="targetPoint" />
          </mxGeometry>
        </mxCell>
        <mxCell id="50" value="" style="endArrow=classic;html=1;rounded=0;entryX=0.995;entryY=0.874;entryDx=0;entryDy=0;entryPerimeter=0;exitX=0;exitY=0.5;exitDx=0;exitDy=0;" edge="1" source="27" target="19" parent="1">
          <mxGeometry width="50" height="50" relative="1" as="geometry">
            <mxPoint x="200" y="-140" as="sourcePoint" />
            <mxPoint x="250" y="-190" as="targetPoint" />
          </mxGeometry>
        </mxCell>
        <mxCell id="51" value="" style="endArrow=classic;html=1;rounded=0;exitX=1;exitY=0.25;exitDx=0;exitDy=0;entryX=0;entryY=0.687;entryDx=0;entryDy=0;entryPerimeter=0;" edge="1" source="28" target="30" parent="1">
          <mxGeometry width="50" height="50" relative="1" as="geometry">
            <mxPoint x="400" y="-150" as="sourcePoint" />
            <mxPoint x="450" y="-200" as="targetPoint" />
          </mxGeometry>
        </mxCell>
        <mxCell id="52" value="" style="endArrow=classic;html=1;rounded=0;exitX=-0.019;exitY=0.427;exitDx=0;exitDy=0;exitPerimeter=0;entryX=1;entryY=0.876;entryDx=0;entryDy=0;entryPerimeter=0;" edge="1" source="33" target="24" parent="1">
          <mxGeometry width="50" height="50" relative="1" as="geometry">
            <mxPoint x="440" y="-100" as="sourcePoint" />
            <mxPoint x="387" y="-67" as="targetPoint" />
          </mxGeometry>
        </mxCell>
        <mxCell id="53" value="" style="endArrow=classic;html=1;rounded=0;exitX=1.003;exitY=0.187;exitDx=0;exitDy=0;exitPerimeter=0;entryX=-0.004;entryY=0.672;entryDx=0;entryDy=0;entryPerimeter=0;" edge="1" source="34" target="38" parent="1">
          <mxGeometry width="50" height="50" relative="1" as="geometry">
            <mxPoint x="560" y="-160" as="sourcePoint" />
            <mxPoint x="610" y="-210" as="targetPoint" />
          </mxGeometry>
        </mxCell>
      </root>
    </mxGraphModel>
  </diagram>
</mxfile>
